<svg xmlns="http://www.w3.org/2000/svg" xmlns:xlink="http://www.w3.org/1999/xlink" version="1.1" width="256" height="256" viewBox="0 0 256 256" xml:space="preserve">
<g style="stroke: none; stroke-width: 0; stroke-dasharray: none; stroke-linecap: butt; stroke-linejoin: miter; stroke-miterlimit: 10; fill: none; fill-rule: nonzero; opacity: 1;" transform="translate(1.4065934065934016 1.4065934065934016) scale(2.81 2.81)">
	<path d="M 69.439 51.3 c 2.131 -0.696 3.685 -2.679 3.685 -5.04 c 0 -2.83 -2.225 -5.129 -5.015 -5.294 V 12.784 c 0 -3.525 -2.868 -6.394 -6.394 -6.394 H 49.519 V 1 c 0 -0.552 -0.447 -1 -1 -1 h -7.037 c -0.552 0 -1 0.448 -1 1 v 5.39 H 28.284 c -3.526 0 -6.394 2.868 -6.394 6.394 v 28.182 c -2.789 0.165 -5.014 2.464 -5.014 5.294 c 0 2.36 1.554 4.343 3.684 5.04 c 0.962 7.627 4.733 14.417 10.453 18.796 l -3.9 18.7 c -0.062 0.295 0.013 0.602 0.203 0.835 S 27.791 90 28.092 90 h 33.816 c 0.301 0 0.586 -0.136 0.776 -0.369 c 0.189 -0.233 0.264 -0.54 0.202 -0.835 l -3.899 -18.701 C 64.707 65.716 68.477 58.927 69.439 51.3 z M 42.481 2 h 5.037 v 4.39 h -5.037 V 2 z M 28.284 8.39 h 13.197 h 7.037 h 13.197 c 2.423 0 4.394 1.971 4.394 4.394 v 28.151 H 23.89 V 16.077 h 32.039 c 0.553 0 1 -0.448 1 -1 s -0.447 -1 -1 -1 H 23.89 v -1.293 C 23.89 10.361 25.861 8.39 28.284 8.39 z M 18.876 46.26 c 0 -1.833 1.492 -3.325 3.325 -3.325 h 0.689 h 44.219 h 0.689 c 1.834 0 3.325 1.492 3.325 3.325 c 0 1.834 -1.491 3.325 -3.325 3.325 H 22.201 C 20.368 49.585 18.876 48.094 18.876 46.26 z M 57.291 68.865 c -0.319 0.231 -0.473 0.628 -0.392 1.014 L 60.678 88 H 29.322 l 3.614 -17.325 H 45 c 0.552 0 1 -0.447 1 -1 s -0.448 -1 -1 -1 H 32.461 c -5.289 -3.947 -8.838 -10.11 -9.852 -17.09 h 44.783 C 66.36 58.676 62.719 64.928 57.291 68.865 z" style="stroke: none; stroke-width: 1; stroke-dasharray: none; stroke-linecap: butt; stroke-linejoin: miter; stroke-miterlimit: 10; fill: rgb(93,115,126); fill-rule: nonzero; opacity: 1;" transform=" matrix(1 0 0 1 0 0) " stroke-linecap="round"/>
</g>
</svg>